<?xml version="1.0" encoding="UTF-8" standalone="no"?>
<svg id="svg4330" xmlns:rdf="http://www.w3.org/1999/02/22-rdf-syntax-ns#" xmlns="http://www.w3.org/2000/svg" height="1304" viewBox="0 0 1983 1304" width="1983" version="1.1" xmlns:cc="http://creativecommons.org/ns#" xmlns:dc="http://purl.org/dc/elements/1.1/">
<path id="path4340" d="m872 1295c-24.03-2.2141-42.972-4.5405-53.5-6.5706-42.331-8.1626-59.981-12.613-93.5-23.575-28.606-9.3554-67.365-26.171-92-39.914-3.575-1.9944-9.65-5.3277-13.5-7.4073s-7.675-4.3111-8.5-4.9587c-0.825-0.6477-4.7743-3.0862-8.7762-5.4188-9.7156-5.663-33.826-22.02-43.563-29.555-4.3118-3.3363-9.0648-6.966-10.562-8.066-16.56-12.165-50.315-43.259-68.978-63.541-18.011-19.573-24.507-27.1-33.934-39.32-1.4774-1.9152-4.7112-6.0959-7.1862-9.2905s-5.175-6.8012-6-8.0147-4.31-6.1726-7.7443-11.02c-11.137-15.72-12.987-18.565-23.62-36.314-38.815-64.792-68.273-140.31-81.136-208-1.411-7.425-2.9911-15.3-3.5115-17.5-7.8601-33.229-14.437-123.28-10.901-149.28 11.757-86.449 11.92-83.935-6.3026-97.193-7.8561-5.7158-17.596-12.898-21.644-15.96-4.0483-3.0624-8.6025-6.468-10.12-7.568-13.345-9.6704-47.683-37.32-63.425-51.07-4.4518-3.8886-9.4222-8.1636-11.045-9.5-12.26-10.12-52.16-48.81-71.12-68.97-11.47-12.2-27.691-31.11-33.887-39.51-1.621-2.19-3.246-4.21-3.611-4.49s-4.4-5.68-8.966-12c-134.04-185.67-53.326-337.54 165.52-311.44 65.562 7.8212 151.38 31.567 224 61.979 26.313 11.02 49.036 20.742 56 23.961 4.4 2.0338 10.475 4.8341 13.5 6.2228s17.272 8.3181 31.66 15.399c14.39 7.09 26.89 12.88 27.79 12.88 3.0441 0 20.917-10.512 77.852-45.79 37-22.926 128.82-54.553 192.2-66.203 6.05-1.112 13.25-2.4614 16-2.9985 39.001-7.6176 113.63-10.911 157.5-6.9502 49.089 4.4316 84.592 11.236 133.5 25.588 98.056 28.773 196.51 88.751 270.62 164.86 20.385 20.935 23.801 24.571 27.704 29.491 1.9636 2.475 4.1033 4.9612 4.7548 5.525 2.6628 2.3041 22.65 27.676 30.658 38.917 5.6393 7.9165 20.258 29.434 22.247 32.744 0.5572 0.9277 3.6776 6.1027 6.9342 11.5 14.918 24.724 25.579 44.333 25.579 47.047 0 0.73095 0.675 1.588 1.5 1.9046 0.825 0.31659 1.5 1.0815 1.5 1.6999 0 0.61835 2.4354 6.3077 5.4119 12.643 8.3385 17.748 13.277 29.178 15.168 35.109 0.9488 2.9754 2.0652 5.8599 2.4807 6.4099 2.1309 2.8204 15.405 44.308 21.437 67 3.6974 13.909 10.459 46.43 12.371 59.5 0.6035 4.125 1.5616 10.65 2.1291 14.5 1.6558 11.231 3.7458 32.417 3.9405 39.941 0.099 3.8175 0.3655 7.2419 0.5929 7.6098 0.2273 0.36783 0.5039 10.294 0.6146 22.059 0.1108 11.765 0.3975 22.166 0.6372 23.113 0.2581 1.0202 5.7955 4.4348 13.576 8.3718 7.2273 3.6569 15.503 7.9442 18.39 9.5272 2.8875 1.583 7.8375 4.2832 11 6.0004 9.6824 5.2574 33.7 18.844 42.25 23.899 0.825 0.48786 6.675 3.9237 13 7.6352s16 9.635 21.5 13.163c5.5 3.5284 11.293 7.1498 12.874 8.0475 10.318 5.8594 67.887 45.371 78.126 53.621 9.7609 7.8645 13.986 11.233 16.323 13.011 24.587 18.717 64.239 56.724 78.177 74.934 45.387 59.294 52.873 100.84 25.56 141.85-40.314 60.532-155.21 78.943-335.06 53.69-4.4-0.6178-18.575-2.9121-31.5-5.0985-12.925-2.1863-27.55-4.6454-32.5-5.4645s-12.825-2.3314-17.5-3.3607-13.45-2.8566-19.5-4.0607c-6.05-1.204-14.6-3.0069-19-4.0063-4.4-0.9993-11.375-2.5566-15.5-3.4606s-9.2074-2.0914-11.294-2.6387c-5.6376-1.4785-6.4195-0.9332-17.732 12.368-12.687 14.916-60.622 63.057-70.974 71.279-4.125 3.2762-7.725 6.2362-8 6.5779-3.56 4.4235-42.15 33.283-63.136 47.216-81.956 54.412-183.99 95.064-273.86 109.11-5.225 0.8167-13.775 2.1489-19 2.9605-41.81 6.494-108.26 8.5032-151 4.5654zm106-30.441c16.961-1.2811 26.198-2.3535 56.5-6.5595 35.19-4.8845 123.76-29.557 131.46-36.623 2.145-1.9666 0.1982-3.3914-9.9643-7.2926-4.675-1.7947-12.325-4.8286-17-6.7422-4.675-1.9135-9.4-3.8452-10.5-4.2926s-5.903-2.4338-10.673-4.4143c-4.7704-1.9804-8.9014-3.6008-9.1799-3.6008-0.5076 0-42.632-17.627-50.147-20.985-2.2-0.9828-11.421-5.0354-20.491-9.0057-19.864-8.6957-45.748-21.157-48.509-23.354-4.5814-3.6458 7.2196-0.5778 29.878 7.7679 5.017 1.8478 16.097 5.9003 24.622 9.0054 8.525 3.1052 18.875 6.9418 23 8.5259 8.4694 3.2525 38.902 14.607 52.5 19.588 4.95 1.8132 15.3 5.6157 23 8.45 20.708 7.6221 39.407 14.007 41.022 14.007 1.4616 0 22.592-8.23 25.736-10.024 0.967-0.5517 5.076-2.3211 9.131-3.9319 20.681-8.2153 66.282-32.335 75.523-39.947 5.3777-4.4295 4.4159-4.9982-25.055-14.816-26.276-8.7538-70.016-23.943-97.357-33.808-7.15-2.5799-17.95-6.4061-24-8.5029-6.05-2.0967-20.45-7.4791-32-11.961-11.55-4.4818-23.632-9.0429-26.849-10.136-3.2171-1.0928-8.3921-3.1312-11.5-4.5296s-7.9008-3.3593-10.651-4.3574c-9.2001-3.3392-33.927-13.805-40.5-17.143-15.566-7.9029 7.365-3.056 57.5 12.154 3.85 1.168 9.475 2.789 12.5 3.6023 3.025 0.8132 6.85 1.914 8.5 2.4461 3.8819 1.2517 36.383 10.984 39 11.679 1.1 0.2919 7.175 2.0815 13.5 3.9769s20.5 6.1374 31.5 9.4267 25.625 7.7392 32.5 9.8886 20.375 6.1691 30 8.9325c9.625 2.7635 23.575 6.8481 31 9.0769s14.85 4.4476 16.5 4.9306c1.65 0.4831 7.6437 2.2423 13.319 3.9095 13.777 4.0471 12.958 4.4757 46.363-24.241 19.74-16.969 19.457-15.626 4.1393-19.682-26.866-7.1133-34.104-9.1678-53.821-15.278-24.043-7.4505-41.004-13.081-56.902-18.89-6.1039-2.23-13.348-4.8466-16.098-5.8145-27.349-9.6261-76.118-30.916-78.075-34.084-1.5207-2.4606 14.06 0.897 51.075 11.007 6.05 1.6524 17.525 4.7789 25.5 6.9479s18.1 4.9374 22.5 6.1521c45.193 12.476 108.05 27.645 131.31 31.686l9.305 1.6171 6.3104-6.3939c12.919-13.09 23.612-25.261 22.858-26.016-0.4284-0.4284-9.753-3.0783-20.721-5.8886-10.968-2.8102-20.249-5.2992-20.624-5.5311-0.3752-0.2318-6.476-1.9571-13.557-3.8338-23.185-6.1447-73.769-21.126-108.38-32.098-6.325-2.0053-14.65-4.6118-18.5-5.7922-10.688-3.2771-89.478-29.947-102.5-34.696-6.325-2.3066-12.625-4.5664-14-5.0218-2.2795-0.75494-14.198-5.027-40.15-14.391-5.3075-1.915-12.508-4.6114-16-5.9919-3.4924-1.3805-12.48-4.7662-19.973-7.5237-7.4927-2.7575-17.843-6.662-23-8.6767-5.1574-2.0146-14.102-5.4749-19.877-7.6895s-11.85-4.5849-13.5-5.2673c-1.65-0.68243-9.075-3.612-16.5-6.51-7.425-2.8981-18.133-7.2261-23.795-9.6178-5.64-2.49-10.48-4.45-10.73-4.45-0.46 0-6.52-2.52-31.45-13.04-6.875-2.9037-14.525-6.0626-17-7.0198-3.9887-1.5426-22.362-9.35-31.237-13.274-1.79-0.8-19.01-8.33-38.26-16.74-55.56-24.28-53.31-23.27-80.83-36.32-6.51-3.09-12-5.61-12.2-5.61-0.20164 0-7.867-3.6-17.034-8-9.1671-4.4-16.88-8-17.139-8-0.25931 0-12.245-5.8021-26.635-12.894-14.39-7.09-28.86-14.21-32.16-15.81-10.602-5.1539-59.608-30.413-72-37.112-6.6-3.5676-15.825-8.4887-20.5-10.936-4.675-2.4471-10.3-5.4817-12.5-6.7435s-7.375-4.0873-11.5-6.2788c-9.8013-5.2072-43.772-24.265-56.5-31.696-5.5-3.2114-12.025-6.9624-14.5-8.3356s-6.8559-3.994-9.7354-5.8238c-2.8794-1.8298-7.8294-4.7008-11-6.38-3.1705-1.6791-7.7896-4.3816-10.265-6.0056-2.475-1.6239-5.175-3.2756-6-3.6704-0.825-0.39476-3.075-1.7971-5-3.1163s-4.4-2.8016-5.5-3.2941c-1.1-0.49256-5.825-3.3279-10.5-6.3007s-11.65-7.3217-15.5-9.6642-13.156-8.2371-20.681-13.099c-7.53-4.87-14.15-8.85-14.73-8.85-1.285 0-1.516 1.1605-3.4828 17.5-3.4417 28.592-3.5114 31.372-0.83813 33.44 3.8078 2.9454 17.419 13.562 21.233 16.56 10.652 8.3766 64.816 45.876 72.221 50 0.98743 0.55 8.0629 4.9345 15.723 9.7433 16.231 10.189 45.06 27.757 45.55 27.757 0.18532 0 8.8124 4.8796 19.171 10.844 24.779 14.266 25.13 14.462 51.834 28.971 22.289 12.11 120.67 61.924 145 73.416 6.6 3.1179 17.4 8.2216 24 11.342 6.6 3.12 14.7 6.9144 18 8.432 3.3 1.5177 9.375 4.3326 13.5 6.2553 4.125 1.9228 12.675 5.8309 19 8.6847s13.75 6.2585 16.5 7.5658c7.6216 3.6232 27.266 12.381 34 15.157 3.3 1.3606 10.275 4.4282 15.5 6.817 7.9701 3.6438 17.228 7.6846 43.5 18.988 1.65 0.70988 4.575 1.9932 6.5 2.8519 6.6634 2.9723 35.547 15.38 46.5 19.975 6.05 2.5381 17.45 7.3342 25.334 10.658 7.8835 3.3238 14.584 6.0434 14.89 6.0434 0.30627 0 2.4062 0.87793 4.6664 1.951 2.2602 1.073 7.2595 3.2619 11.11 4.8642 3.85 1.6023 12.175 5.0625 18.5 7.6893s17.036 7.188 23.803 10.136c6.7669 2.9478 12.617 5.3697 13 5.382 1.77 0.0565 5.6775 3.9335 3.9867 3.9555-1.715 0.0223-19.665-4.2764-25.29-6.0564-1.65-0.52216-8.3753-2.5368-14.945-4.4769-12.624-3.7282-55.569-17.867-66.555-21.913-3.575-1.3164-17.3-6.2994-30.5-11.073-13.2-4.7738-36.825-13.785-52.5-20.026-15.675-6.2403-32.55-12.96-37.5-14.932-8.6267-3.4368-17.603-7.1767-24-9.9993-6.56-2.9-31.68-13.5-31.97-13.5-0.1744 0-4.177-1.8-8.8947-4s-8.8125-4-9.0995-4-13.459-5.8833-29.272-13.074c-30.817-14.014-31.078-14.135-53.75-24.951-8.25-3.9356-19.95-9.4736-26-12.307-15.739-7.3701-90.283-44.941-99.361-50.078-4.2-2.38-9.44-5.21-11.64-6.29-4.3841-2.1508-29.618-15.689-36-19.315-2.2-1.2498-6.025-3.4004-8.5-4.779-2.475-1.3787-7.5778-4.2401-11.34-6.3586-3.76-2.12-7.06-3.85-7.32-3.85-0.26416 0-2.4424-1.35-4.8406-3s-4.5778-3-4.8436-3c-1.392 0-59.887-35.067-78.656-47.154-5.225-3.3647-11.402-7.2939-13.727-8.7317s-11.732-7.6963-20.904-13.908c-18.129-12.278-19.928-12.886-19.764-6.683 0.0581 2.1872 0.23563 10.952 0.39459 19.477 0.36628 19.643 2.3785 43.293 3.7216 43.741 0.56598 0.18866 3.4476 2.1515 6.4036 4.3619 11.993 8.9681 75.289 50.297 92.632 60.484 2.7841 1.6354 18.467 11.268 39.243 24.105 3.025 1.869 13.825 8.3641 24 14.434 10.175 6.0694 19.175 11.449 20 11.955 4.2588 2.6103 39.636 23.16 46 26.721 2.475 1.3846 6.1786 3.571 8.2301 4.8586 2.0516 1.2876 3.9443 2.3411 4.206 2.3411 0.26173 0 2.8582 1.416 5.7699 3.1467s7.769 4.4931 10.794 6.1388 8.65 4.8993 12.5 7.2302c6.9207 4.1901 10.922 6.438 27.5 15.45 28.32 15.395 18.269 15.616-15 0.33075-3.025-1.3898-9.325-4.2292-14-6.3096-31.948-14.217-75.14-35.877-119.5-59.927-2.75-1.4909-9.95-5.3697-16-8.6195s-12.35-6.6708-14-7.602c-1.65-0.93127-5.475-3.0095-8.5-4.6183-5.7028-3.0329-36.228-20.486-58-33.162-10.715-6.2384-34.082-20.25-44.093-26.44-4.637-2.867-5.6431-1.0852-3.5791 6.3385 0.91948 3.3072 1.666 7.0324 1.659 8.2782-0.0305 5.3972 10.751 49.592 16.478 67.548 2.6168 8.2036 2.7106 8.3333 9.8382 13.596 11.562 8.5372 42.193 28.795 53.95 35.68 2.8856 1.6898 10.196 6.1678 16.246 9.9511s14.825 9.0789 19.5 11.768c4.675 2.6892 13 7.5093 18.5 10.711 5.5 3.2022 13.825 7.9259 18.5 10.497 4.675 2.5712 14.417 8.0953 21.649 12.276 7.2322 4.1804 16.682 9.4713 21 11.758 13.01 6.889 21.604 11.503 26.351 14.149 2.475 1.3793 9.45 5.1134 15.5 8.2979s13.25 7.0273 16 8.5394c10.407 5.7224 41.031 21.561 85.5 44.22 27.416 13.97 34.699 18.041 33.18 18.547-2.0951 0.6984-36.348-12.624-70.268-27.331-8.4766-3.6751-18.112-7.7794-21.412-9.1206s-7.4625-3.0872-9.25-3.88-4.7125-2.0726-6.5-2.8438c-1.7875-0.7713-6.175-2.7366-9.75-4.3672-3.575-1.6307-9.875-4.4267-14-6.2134s-9.975-4.37-13-5.7408-10-4.5165-15.5-6.9905-12.925-5.9842-16.5-7.8005-9.875-4.7503-14-6.52c-30.74-13.188-117.97-58.434-140.73-72.992-5.022-3.2132-4.9722 0.27462 0.16091 11.258 20.144 43.102 44.445 85.461 63.824 111.25 21.623 28.774 28.011 36.541 46.877 56.988 59.356 64.331 134.8 116.72 211.08 146.58 17.163 6.7185 46.375 16.801 56.448 19.484 42.038 11.195 70.265 16.404 105.33 19.438 7.425 0.6423 17.325 1.5264 22 1.9647 14.829 1.3902 64.314 1.1501 85-0.4124zm823.81-217.57c105.8-7.5212 151.21-45.309 129.12-107.46-11.209-31.541-59.148-84.16-113.04-124.07-1.4307-1.0597-6.8307-5.1529-12-9.0959-10.208-7.7862-18.496-13.72-29.399-21.046-3.85-2.5872-7.225-4.947-7.5-5.2442-0.7852-0.84837-28.727-19.258-36.5-24.049-3.85-2.3727-8.575-5.3143-10.5-6.537-9.9-6.31-15.1-9.49-15.5-9.49-0.2367 0-2.3655-1.2939-4.7306-2.8753-3.636-2.4312-11.315-6.967-27.3-16.125-29.075-16.658-27.881-16.9-34.467 7.0004-0.682 2.475-1.5848 4.95-2.0064 5.5-0.4215 0.55-1.3249 2.8-2.0076 5-0.6828 2.2-2.3164 5.8801-3.6304 8.1781-3.6692 6.417-3.6224 6.4721 12.361 14.562 27.975 14.158 31.834 16.309 64.75 36.081 33.246 19.971 69.188 48.112 83.5 65.379 11.199 13.511 14.466 18.933 17.569 29.158 14.425 47.529-70.069 61.537-211.57 35.076-5.775-1.0799-13.2-2.4485-16.5-3.0413-3.3-0.59276-8.925-1.6998-12.5-2.4602-3.575-0.76034-14.15-2.9847-23.5-4.9431-25.042-5.2451-41.35-9.1899-97-23.464-6.6-1.6929-15.825-4.1909-20.5-5.551-4.675-1.3602-15.025-4.2702-23-6.4668-18.838-5.1885-32.172-9.0694-58.5-17.026-30.556-9.2339-111.6-35.782-147-48.153-41.898-14.642-56.084-19.766-83.5-30.159-7.975-3.0232-22.6-8.5346-32.5-12.248-9.9-3.713-21.15-7.965-25-9.4489s-9.7-3.6965-13-4.9169-9.15-3.5235-13-5.1182c-3.85-1.5946-13.975-5.6176-22.5-8.9399s-16.4-6.4584-17.5-6.969-10.325-4.2895-20.5-8.3976-24.8-10.154-32.5-13.436c-7.7-3.2818-19.116-8.0727-25.369-10.646-6.2528-2.5736-12.103-5.0758-13-5.5604-0.89715-0.4846-6.5812-2.9858-12.631-5.5582-6.05-2.5724-14.375-6.1544-18.5-7.96s-13.8-6.0144-21.5-9.3529c-7.7-3.3386-14.809-6.5479-15.798-7.1319-0.98913-0.58402-7.0641-3.3455-13.5-6.1366s-12.153-5.4364-12.704-5.8783c-0.55137-0.44198-3.2514-1.6942-6-2.7827s-9.9475-4.317-15.998-7.1744c-6.05-2.8574-13.475-6.3347-16.5-7.7274-3.025-1.3926-14.05-6.6708-24.5-11.729-10.45-5.0585-23.259-11.19-28.464-13.626-5.2052-2.4361-23.43-11.458-40.5-20.049-75.15-37.85-105.67-54.13-162.5-86.72-9.075-5.2045-17.85-10.231-19.5-11.169-5.4274-3.0876-33.866-20.125-40.5-24.264-7.2162-4.5016-8.0316-5.0161-26.5-16.72-15.673-9.9326-56.648-37.378-65-43.538-3.3-2.4338-8.475-6.106-11.5-8.1604s-10.225-7.323-16-11.708-11.625-8.8026-13-9.8169c-21.67-15.98-64.09-52.89-84.82-73.79-17.33-17.47-49.18-56.65-49.18-60.5 0-0.35195-1.2745-2.521-2.8322-4.8201-60.93-89.93 14.2-152.73 141.83-118.55 4.125 1.1049 10.875 2.9152 15 4.0229s11.325 3.2768 16 4.8201 15.025 4.9214 23 7.507c7.975 2.5855 16.525 5.5316 19 6.5468s8.775 3.425 14 5.3551c9.7956 3.6185 37.19 14.615 42.5 17.061 1.65 0.75987 7.05 3.0505 12 5.0903s11.7 4.9555 15 6.4793 10.275 4.6277 15.5 6.8976 10.281 4.5677 11.236 5.1062c3.3076 1.8651 5.1266 0.93362 17.115-8.7644 15.237-12.325 26.863-20.921 33.486-24.756 3.7099-2.1486 5.1064-3.5386 4.921-4.8979-0.31704-2.3247 0.79903-1.6894-22.259-12.67-10.45-4.9766-21.7-10.336-25-11.909-3.3-1.5732-11.85-5.4239-19-8.557s-14.125-6.276-15.5-6.9841c-7.33-3.77-52.92-21.743-82.01-32.326-49.12-17.873-118.25-35.761-157-40.624-163.08-20.467-234.68 50.271-184.69 182.47 7.8788 20.835 19.916 41.985 43.256 76 3.1528 4.5948 16.477 21.851 18.574 24.055 0.90146 0.94755 3.3765 3.9208 5.5 6.6072s5.4835 6.6739 7.4665 8.861 5.987 6.6766 8.8976 9.9766c18.034 20.447 53.995 55.117 82.519 79.558 25.551 21.894 27.798 23.76 39.498 32.807 5.7643 4.4575 13.631 10.578 17.481 13.6 3.85 3.0227 13.3 10.134 21 15.803 13.389 9.858 19.03 13.921 33.5 24.133 9.0866 6.4122 66.22 44.515 73.5 49.017 3.3 2.0411 9.6 5.9843 14 8.7627s15.2 9.3374 24 14.576c8.8 5.2381 17.575 10.555 19.5 11.816 1.925 1.2607 8 4.8484 13.5 7.9728 15.556 8.837 16.543 9.4101 24.233 14.07 3.9781 2.411 7.4302 4.3836 7.6711 4.3836 0.24099 0 4.3341 2.25 9.0959 5s8.8313 5 9.0435 5c0.21217 0 4.5642 2.3945 9.6711 5.3212 9.4472 5.4139 19.144 10.691 35.285 19.203 4.95 2.6103 11.475 6.0903 14.5 7.7334s26.65 13.627 52.5 26.631c44.095 22.182 59.944 29.956 85.5 41.934 5.775 2.7067 15.45 7.2852 21.5 10.174 6.05 2.8892 14.825 6.945 19.5 9.0128s10.975 4.8852 14 6.2607c15.04 6.8394 17.834 8.0787 22 9.7613 2.475 0.99957 7.3197 3.2014 10.766 4.8929s6.4715 3.0755 6.7227 3.0755c0.25121 0 3.0565 1.1668 6.2341 2.593 3.1775 1.4261 7.5773 3.4 9.7773 4.3863 2.2 0.98632 12.1 5.2694 22 9.5181 9.9 4.2486 20.025 8.642 22.5 9.763s9.675 4.1794 16 6.7964 17.575 7.3201 25 10.451c7.425 3.1312 17.775 7.3893 23 9.4624 12.964 5.1434 24.891 9.9721 28.5 11.538 4.622 2.0053 49.059 19.427 57.5 22.544 4.125 1.5229 15.375 5.7878 25 9.4777 9.625 3.6898 21.1 7.9632 25.5 9.4964s11.15 3.9739 15 5.4239c29.838 11.237 97.86 34.948 125.5 43.745 5.225 1.6631 17.6 5.6364 27.5 8.8296s23.4 7.442 30 9.4418 17.85 5.4665 25 7.7039c19.59 6.1301 47.895 14.279 74 21.304 4.95 1.332 11.7 3.153 15 4.0465 12.8 3.4658 45.365 11.84 52.5 13.501 4.125 0.96 12.45 2.9266 18.5 4.3702 22.196 5.2962 64.381 14.529 78 17.072 7.7 1.4375 18.275 3.4725 23.5 4.5221 19.58 3.9336 68.753 11.58 84 13.062 4.675 0.4544 11.875 1.3244 16 1.9335 7.5386 1.113 16.199 1.9077 43 3.9453 21.222 1.6135 23.172 1.6867 50.313 1.889 13.647 0.1018 31.422-0.2848 39.5-0.8591zm-49.218-134.03c44.433-6.18 24.722-36.722-54.094-83.819-6.6-3.9439-12.675-7.5993-13.5-8.1231-0.825-0.52381-3.075-1.8027-5-2.8419s-11.6-6.2758-21.5-11.637c-36.747-19.899-51.069-26.316-51.903-23.252-0.1871 0.6875-1.3164 5.75-2.5094 11.25-5.4714 25.223-20.5 69.127-29.111 85.042-4.6944 8.677-4.5155 8.9862 6.3278 10.939 3.9573 0.71271 15.295 2.9261 25.195 4.9187s20.7 4.1017 24 4.6869c3.3 0.58524 8.025 1.4718 10.5 1.97 8.4517 1.7016 47.48 7.8045 57 8.9131 21.264 2.4764 24.96 2.7768 35.678 2.9006 6.1477 0.071 14.66-0.35534 18.917-0.94736zm-216.96-32.689c1.2808-0.82601 11.751-21.704 15.252-30.413 3.5508-8.833 3.9343-8.5065-15.834-13.479-23.164-5.8271-69.939-19.102-100.06-28.397-6.875-2.1216-14.975-4.6152-18-5.5412-18.92-5.792-47.073-14.807-70-22.414-14.575-4.8361-28.075-9.259-30-9.8288-6.0634-1.7947-52.698-17.862-83-28.597-34.221-12.123-92.95-34.279-103.5-39.045-1.65-0.74554-7.6492-3.2034-13.332-5.462-36.904-14.668-25.321-14.426 26.832 0.56077 4.675 1.3434 10.075 2.8741 12 3.4016 7.2105 1.9758 22.076 6.286 40 11.598 10.175 3.0154 23.675 6.9724 30 8.7933 6.325 1.821 20.725 6.0276 32 9.348 24.103 7.0983 50.888 14.978 67 19.71 6.325 1.8577 16.675 4.947 23 6.865 6.325 1.9181 13.525 4.005 16 4.6375 2.475 0.63258 10.575 2.9175 18 5.0776 16.318 4.7472 30.834 8.8205 49.5 13.89 7.7 2.0912 17.825 4.9644 22.5 6.385 4.675 1.4205 15.025 4.1954 23 6.1664s17.425 4.4193 21 5.4406 10.55 2.791 15.5 3.9325c4.95 1.1416 13.95 3.2733 20 4.7372 29.294 7.0882 29.167 7.0896 31.21-0.35454 13.687-49.88 13.939-52.34 5.6061-54.744-6.477-1.8688-48.016-15.903-66.816-22.574-9.9576-3.5334-36.117-13.029-41-14.883-2.75-1.044-8.15-3.0134-12-4.3765s-14.2-5.2504-23-8.6385-21.85-8.4118-29-11.164c-21.86-8.4135-40.95-16.167-41.95-17.039-0.5225-0.4552-1.5036-0.82764-2.1802-0.82764-0.6767 0-4.1469-1.35-7.7118-3-3.5648-1.65-6.7225-3-7.0172-3-2.6532 0-68.136-30.421-72.068-33.48-7.1997-5.6015 7.9794-1.4029 70.927 19.619 16.5 5.5103 31.35 10.409 33 10.886 1.65 0.47719 23.7 7.815 49 16.306 25.3 8.4913 50.725 16.878 56.5 18.636 5.775 1.7588 12.75 4.0059 15.5 4.9936 2.75 0.98772 11.525 3.7043 19.5 6.0368s18.775 5.5128 24 7.0673c7.5628 2.25 26.748 7.4182 42.5 11.449 3.5331 0.90403 4.0479-0.69226 6.2931-19.514 5.7989-48.614 5.5635-53.045-2.9637-55.782-3.4812-1.1174-11.279-3.611-17.329-5.5412-17.345-5.534-52.898-17.814-54-18.652-0.55-0.41808-3.475-1.5407-6.5-2.4947-5.9017-1.8612-35.935-13.22-45-17.019-3.025-1.2678-12.7-5.1158-21.5-8.5513s-19.739-7.9819-24.309-10.103c-4.5701-2.1213-8.8676-3.8569-9.55-3.8569-0.6825 0-1.6684-0.41579-2.1909-0.92397-0.5225-0.50819-3.2-1.7893-5.95-2.847-8.5794-3.2996-46.5-21.444-46.5-22.25 0-2.4451 6.1608-1.5031 26 3.9758 22.775 6.2896 61.109 17.163 91.5 25.953 71.37 20.644 119.71 33.607 122.02 32.721 1.159-0.44475 1.3545-2.0516 0.9544-7.8444-0.2767-4.0068-0.9625-14.71-1.524-23.785-1.4608-23.611-6.7095-63.131-11.023-83-5.0516-23.268-11.946-48.218-18.654-67.5-1.3392-3.85-3.0872-9.1223-3.8844-11.716-4.3143-14.038-19.527-48.907-31.754-72.784-15.205-29.692-42.816-72.585-60.158-93.457-2.7614-3.3235-6.0616-7.3927-7.3337-9.0427-2.1945-2.8466-7.2692-8.6545-20.494-23.455-8.5444-9.5626-38.847-39.288-47.606-46.699-10.921-9.2403-32.574-26.353-39.545-31.254-19.837-13.944-43.326-29.335-48.254-31.617-1.79-0.82871-5.6202-3.0201-8.5116-4.8697-39.3-25.23-117.6-54.538-177.7-66.607-89.8-18.017-194.39-16.147-272.83 4.879-2.02 0.541-8.62 2.197-14.67 3.681-11.101 2.7223-14.243 4.0574-12.792 5.4351 0.91962 0.87351 17.248 10.844 25.292 15.444 3.025 1.7298 17.425 10.132 32 18.672 14.575 8.5398 26.95 15.705 27.5 15.922 0.55 0.21703 6.625 3.7147 13.5 7.7727s15.65 9.1907 19.5 11.406c3.85 2.2154 8.575 5.0287 10.5 6.2517s8.9747 5.4631 15.666 9.4223c17.675 10.458 20.804 14.731 5.4389 7.4263-11.198-5.3236-42.964-21.253-55.605-27.885-6.05-3.1737-17.75-9.2566-26-13.518-18.287-9.4449-33.828-17.568-42.5-22.215-3.575-1.9156-11.225-5.9649-17-8.9984s-14.457-7.5975-19.293-10.142c-10.824-5.6954-9.2915-5.7381-27.831 0.77505-25.384 8.9177-44.627 16.791-68.945 28.21-15.505 7.2807-16.124 7.9269-10.681 11.148 1.7875 1.0577 7.0023 4.1319 11.588 6.8316 4.5861 2.6996 9.3765 5.5835 10.645 6.4085 1.2689 0.825 7.6416 4.5596 14.162 8.299 6.52 3.7395 13.655 7.892 15.855 9.228 2.2 1.3359 7.825 4.5418 12.5 7.1242s9.625 5.4504 11 6.3733c2.577 1.7297 15.312 9.0187 25 14.309 3.025 1.6518 7.1376 4.0267 9.139 5.2776 2.0015 1.2509 7.1765 4.1511 11.5 6.4449s10.336 5.6371 13.361 7.4296c6.6616 3.9474 26.848 15.209 48.5 27.057 8.8 4.8154 20.05 11.012 25 13.769 4.95 2.7577 11.025 6.109 13.5 7.4474 2.475 1.3383 5.85 3.1849 7.5 4.1036 1.65 0.91863 6.8726 3.7886 11.606 6.3777 8.7141 4.7667 11.753 7.2348 10.477 8.5101-2.09 2.07-54.84-19.84-104.1-43.22-29.16-13.84-83.65-41.56-98.6-50.16-4.18-2.4-7.9-4.37-8.27-4.37-0.36781 0-4.0046-2.025-8.0818-4.5s-7.7035-4.5-8.0585-4.5c-0.35502 0-3.649-1.7493-7.32-3.8873s-9.1495-5.2434-12.174-6.9009c-3.025-1.6575-11.534-6.4825-18.909-10.722l-13.409-7.7086-3.4419 1.6413c-8.3962 4.0039-44.659 26.897-57.518 36.312-2.0774 1.521-6.3524 4.5435-9.5 6.7166s-7.9728 5.7826-10.723 8.021c-2.75 2.2385-7.4893 5.9519-10.532 8.2522-12.969 9.8051-13.13 9.3026 6.3666 19.844 7.7908 4.2121 16.865 9.1166 20.165 10.899 14.727 7.954 39.457 20.996 56 29.534 9.9 5.1093 21.375 11.093 25.5 13.297 4.125 2.2041 17.4 9.0733 29.5 15.265 12.1 6.1916 30.325 15.568 40.5 20.837 10.175 5.2689 27.162 13.955 37.75 19.302 18.187 9.1858 23.991 13.456 16 11.772-19.024-4.0086-109.93-39.157-166.75-64.475-4.675-2.083-12.325-5.4239-17-7.4242-9.1959-3.9347-10.183-4.389-29.288-13.486-7.03-3.35-12.96-6.09-13.16-6.09-0.2083 0-9.1704-4.275-19.916-9.5-10.745-5.225-20.003-9.5-20.573-9.5-1.3984 0-35.355 33.238-40.267 39.416-4.0465 5.0885-4.5158 9.3548-1.6328 14.844 0.76696 1.4602 20.412 14.909 32.557 22.288 10.47 6.3614 42.34 25.613 45.287 27.357 1.925 1.1388 4.5713 2.5373 5.8806 3.1079 1.3093 0.57054 3.5593 1.8606 5 2.8667s5.9944 3.6507 10.119 5.8767c17.326 9.3503 37.57 20.493 38.5 21.191 0.55 0.41293 7.75 4.2469 16 8.52 8.25 4.273 15.675 8.298 16.5 8.9444s2.625 1.7386 4 2.4272c1.375 0.68856 3.625 2.168 5 3.2876l2.5 2.0356-4.5-0.53429c-2.475-0.29386-7.875-1.6969-12-3.1179s-8.85-2.9813-10.5-3.4674c-1.65-0.48605-5.925-1.9704-9.5-3.2986-19.73-7.3302-31.837-11.972-34.5-13.227-1.65-0.77786-5.925-2.5902-9.5-4.0275-3.575-1.4372-7.85-3.2172-9.5-3.9555-1.65-0.73826-5.7-2.4705-9-3.8495-6.154-2.5716-11.131-4.8325-32-14.537-17.147-7.974-62.917-31.212-69.941-35.51-8.2618-5.0557-7.1245-5.7558-20.912 12.872-25.494 34.445-24.68 31.901-12.384 38.71 4.5305 2.5091 11.612 6.4733 15.737 8.8093s9.525 5.366 12 6.7334c3.7806 2.0886 51.446 27.439 76.837 40.865 11.559 6.112 11.687 6.1907 13.712 8.4289l1.9226 2.1244-3.9861-0.72249c-7.0695-1.2814-47.242-16.693-67.268-25.806-4.26-1.93-13.81-6.2-21.23-9.49-11.406-5.0531-36.251-16.614-43.619-20.296-2.8584-1.4288-5.6135-0.76689-6.8564 1.6472-0.56385 1.0951-3.9917 6.9411-7.6175 12.991-11.06 18.44-21.91 38.91-21.91 41.3 0 1.702 2.8111 5.1985 4.1795 5.1985 0.47824 0 3.671 1.7498 7.095 3.8885 9.0325 5.6418 35.66 21.112 36.339 21.112 0.3179 0 1.7725 0.83627 3.2324 1.8584s5.3544 3.3344 8.6544 5.1383c3.3 1.804 8.025 4.416 10.5 5.8044 12.665 7.1048 20.248 11.313 22.263 12.354 1.2306 0.63584 2.9125 1.5201 3.7375 1.965 0.825 0.44494 4.65 2.449 8.5 4.4535s7.45 3.9837 8 4.3983c0.55 0.41457 4.825 2.7746 9.5 5.2444 17.091 9.0294 31.742 16.795 42 22.263 10.772 5.7413 133.32 66.853 145 72.31 3.575 1.6698 16.744 8.0254 29.265 14.124 12.53 6.1 22.96 11.09 23.18 11.09 0.22716 0 9.5579 4.3226 20.735 9.6057 30.313 14.328 33.236 15.682 46.822 21.689 6.875 3.0397 16.775 7.5258 22 9.9692s15.35 7.0262 22.5 10.184 15.7 7.0332 19 8.612 9.15 4.185 13 5.7917c9.5321 3.9779 30.103 12.951 35 15.268 4.5698 2.1617 22.412 9.7744 40 17.066 6.6 2.7364 13.35 5.5634 15 6.2822 11.639 5.0706 66.45 27.386 81 32.978 6.05 2.3252 20.9 8.055 33 12.733 35.184 13.602 54.373 20.821 55.346 20.821 0.4978 0 3.325 1.0702 6.2827 2.3783 2.9577 1.308 11.451 4.508 18.874 7.1111 7.4233 2.6031 21.147 7.4172 30.497 10.698 109.86 38.549 215.39 68.648 301 85.849 2.75 0.55255 7.7 1.6206 11 2.3734 7.2761 1.6598 8.6689 1.7731 10.139 0.82495zm-1159.2-511.78c2.3296-4.4 5.9007-10.837 7.9359-14.304s3.7003-6.5689 3.7003-6.8932c0-0.32429 4.1054-6.7127 9.123-14.196 26.01-38.793 52.933-73.206 79.071-101.06 8.6686-9.2396 9.8586-11.53 6.8064-13.1-3.1304-1.61-39.206-17.067-55.5-23.779-34.986-14.412-55.082-21.723-88-32.014-113.23-35.399-163.96-14.145-130.2 54.559 16.495 33.579 70.64 92.231 115.2 124.8 2.2 1.6076 5.846 4.5141 8.1023 6.4587s7.2063 5.8643 11 8.7104c30.63 22.979 26.968 21.769 32.762 10.825z"/>
</svg>
