<svg id="Layer_1" height="512" viewBox="0 0 512 512" width="512" xmlns="http://www.w3.org/2000/svg" data-name="Layer 1"><path d="m193.979 264.7-29.116 30.01a6 6 0 1 0 8.612 8.356l29.116-30.009a6 6 0 1 0 -8.612-8.357z"/><path d="m153.222 306.667-9.675 10.082a6 6 0 0 0 8.659 8.308l9.674-10.081a6 6 0 0 0 -8.658-8.309z"/><path d="m398.5 5.574a6 6 0 0 0 1.292 11.93 85.816 85.816 0 0 1 94.7 94.7 6 6 0 0 0 11.931 1.292 97.815 97.815 0 0 0 -107.923-107.922z"/><path d="m398.261 30.856a6 6 0 0 0 1.769 11.87 60.821 60.821 0 0 1 69.244 69.244 6 6 0 0 0 5.051 6.819 6.133 6.133 0 0 0 .891.066 6 6 0 0 0 5.928-5.116 72.824 72.824 0 0 0 -82.883-82.883z"/><path d="m397.722 56.475a6 6 0 0 0 2.847 11.657 35.8 35.8 0 0 1 43.3 43.3 6 6 0 1 0 11.657 2.847 47.8 47.8 0 0 0 -57.8-57.8z"/><path d="m422.679 443.482-121.079-122.113a6 6 0 0 0 -8.521 0l-3.982 4.015-7.411-7.429 40.089-40.6a6.026 6.026 0 0 0 -.008-8.462l-20.578-20.765 11.658-11.663a85.517 85.517 0 0 0 98.289-11.92 6 6 0 0 0 .23-8.67l-52.645-53.1 23.043-23.043a16.008 16.008 0 1 0 -8.492-8.479l-23 23-52.06-52.507a6 6 0 0 0 -8.739.232 87.3 87.3 0 0 0 -14.084 94.383l-12.811 12.812-19.388-19.473a5.93 5.93 0 0 0 -4.261-1.7h-.006a5.916 5.916 0 0 0 -4.262 1.705l-40.256 40.745-9.6-9.621 4.367-4.4a6 6 0 0 0 0-8.449l-121.072-122.118a6 6 0 0 0 -8.521 0l-52.84 53.293a6 6 0 0 0 0 8.449l121.075 122.114a6 6 0 0 0 8.521 0l5.053-5.1 9.674 9.7-46.52 47.082a5.977 5.977 0 0 0 .007 8.422l5.343 5.378-38.218 38.345a6.064 6.064 0 0 0 -.011 8.512l59.5 60.059a6.1 6.1 0 0 0 4.25 1.884h.008a6.1 6.1 0 0 0 4.249-1.873l38.168-38.4 5.292 5.416a6.077 6.077 0 0 0 4.261 1.857h.006a6.074 6.074 0 0 0 4.263-1.865l46.7-47.3 7.321 7.339-5.439 5.485a6 6 0 0 0 0 8.449l121.075 122.117a6 6 0 0 0 8.521 0l52.841-53.294a6 6 0 0 0 0-8.449zm-34.679-322.482a4 4 0 1 1 -4 4 4 4 0 0 1 4-4zm-93.622-6.076 103.869 104.759a73.6 73.6 0 0 1 -97.06-6.8 75.289 75.289 0 0 1 -6.809-97.959zm-12.971 92.4a86.761 86.761 0 0 0 21.08 22.532l-9.743 9.744-21.713-21.9zm-42.469-4.949 70.131 70.733-22.078 22.353-70.132-70.733zm-219.489-58.995 44.391-44.772 10.87 10.963-44.391 44.772zm112.626 113.592-93.306-94.107 44.39-44.772 93.307 94.107-9.441 9.522-35.309-35.612a6 6 0 0 0 -8.521 0l-17.06 17.207a6 6 0 0 0 0 8.449l35.381 35.684zm26.5-26.728-8.611 8.684-31.12-31.386 8.611-8.685zm-8.738 25.856 26.522-26.749 9.612 9.636-26.475 26.8zm-14.4 173.172-51.053-51.485 11.293-11.332 51.049 51.487zm19.765-19.83-51.049-51.487 14.193-14.239 51.043 51.484zm32.186-13.135-70.132-70.733 91.175-92.31 70.127 70.736zm85.876-69.813 7.393 7.412-22.483 22.676-4.038 4.072-7.338-7.356zm37.134 56.87-8.611 8.684-30.939-31.2 8.61-8.684zm-57.441-4.477 9.441-9.522 35.128 35.43a6 6 0 0 0 8.522 0l17.06-17.207a6 6 0 0 0 0-8.449l-35.2-35.5 9.441-9.522 93.306 94.107-44.39 44.771zm112.621 113.591-10.87-10.963 44.392-44.771 10.87 10.963z"/></svg>