<svg xmlns="http://www.w3.org/2000/svg" xmlns:xlink="http://www.w3.org/1999/xlink" width="960" height="960" version="1.1" viewBox="0 0 720 720"><g><g id="Layer-1" data-name="Layer 1"><path fill="#ececec" fill-rule="evenodd" d="M 365.3337 613.0225 C 502.8574 613.0225 614.3426 499.7268 614.3426 359.9691 C 614.3426 220.2114 502.8574 106.9157 365.3337 106.9157 C 227.81 106.9157 116.3248 220.2114 116.3248 359.9691 C 116.3248 499.7268 227.81 613.0225 365.3337 613.0225 Z" transform="matrix(1,0,0,-1,0,720)"/><path fill="none" stroke="#1a1a18" stroke-linecap="butt" stroke-linejoin="miter" stroke-miterlimit="2.613" stroke-width=".5" d="M 365.3337 613.0225 C 502.8574 613.0225 614.3426 499.7268 614.3426 359.9691 C 614.3426 220.2114 502.8574 106.9157 365.3337 106.9157 C 227.81 106.9157 116.3248 220.2114 116.3248 359.9691 C 116.3248 499.7268 227.81 613.0225 365.3337 613.0225 Z" transform="matrix(1,0,0,-1,0,720)"/><path fill="#d1d3d4" d="M 254.9639 508.1119 L 235.1826 506.9908 L 214.9739 490.9377 L 202.136 480.3656 C 202.117 480.3514 202.098 480.3369 202.0742 480.3228 L 191.8012 473.0703 L 192.7276 438.1622 C 192.7369 437.8439 192.5943 437.5449 192.3381 437.3501 C 192.0864 437.1554 191.7587 437.0936 191.4545 437.1837 L 174.6655 442.1279 C 174.4183 442.1993 174.2049 442.3654 174.0813 442.5934 L 163.6705 461.1351 L 160.1892 459.6106 L 148.477 434.0682 L 148.4677 434.0015 L 160.0988 440.1473 C 160.4789 440.3517 160.9492 440.2806 161.2579 439.9764 L 177.5577 423.9519 C 177.7572 423.7571 177.8664 423.4864 177.857 423.2109 C 177.8477 422.9308 177.7192 422.6695 177.5103 422.4892 L 157.6531 405.5335 L 157.2871 395.4932 L 160.9775 386.4694 L 173.4259 393.4414 C 188.7284 439.1785 217.434 478.9074 254.9639 508.1119" transform="matrix(1,0,0,-1,0,720)"/><path fill="#d1d3d4" d="M 415.4947 579.9183 L 412.3174 595.1166 C 411.7 595.2495 411.0826 595.3779 410.4649 595.506 C 408.0713 595.9953 405.6063 596.4559 403.132 596.8834 L 390.9163 565.9407 C 390.7692 565.5609 390.3987 565.3091 389.9903 565.3091 L 359.5751 565.3091 L 337.2004 553.6922 C 336.7349 553.4498 336.1603 553.6159 335.8894 554.0672 L 324.7237 572.8037 L 291.6437 572.8037 C 291.4824 572.8037 291.316 572.8465 291.1737 572.9224 L 276.8114 580.6593 C 276.4029 580.8779 276.1985 581.3527 276.3221 581.7991 L 277.2057 584.9813 C 274.2752 583.8746 271.3589 582.711 268.5141 581.5046 C 263.5461 579.4053 258.5687 577.0973 253.7195 574.6416 L 250.3474 565.8409 L 251.3069 564.7725 L 253.8527 566.3254 L 273.1686 577.8238 C 273.5819 578.0707 274.1088 577.9854 274.4271 577.6291 L 285.4933 565.0481 L 302.5769 544.6443 C 302.7574 544.426 302.8382 544.1409 302.8003 543.8608 C 302.7574 543.5804 302.6007 543.3335 302.368 543.1768 L 282.9762 530.2488 C 282.8146 530.1397 282.6247 530.0827 282.4251 530.0827 L 271.0692 530.0827 L 275.4814 522.4646 C 313.6479 546.3921 358.9432 560.251 407.5203 560.251 C 408.2899 560.251 409.0592 560.2416 409.8237 560.2368 L 411.6382 565.8554 C 411.8043 566.373 412.3553 566.6579 412.8778 566.4966 L 431.5669 560.6974 L 431.5669 562.9011 L 415.7512 579.4339 C 415.6228 579.5717 415.5327 579.738 415.4947 579.9183" transform="matrix(1,0,0,-1,0,720)"/><path fill="#d1d3d4" d="M 140.6452 266.5984 C 146.6674 252.3645 154.1194 238.6341 162.7965 225.7914 C 171.3929 213.063 181.2671 201.0991 192.1385 190.2277 C 194.5607 187.8055 197.0637 185.4071 199.614 183.0657 L 198.1562 188.9977 C 184.5156 210.598 174.219 234.4592 167.9783 259.8829 L 164.8483 262.3337 C 164.7581 262.4049 164.6773 262.4902 164.6155 262.59 L 149.5837 286.7837 C 149.5409 286.8548 149.5077 286.926 149.4839 287.0022 L 141.1296 312.9721 C 141.044 313.2332 141.0727 313.5183 141.2104 313.7604 L 147.4892 324.9215 L 140.061 340.2289 C 139.9042 340.5566 139.9377 340.9461 140.1514 341.2406 L 150.7377 355.9924 L 140.2274 365.3963 C 140.0944 365.5151 139.9946 365.6716 139.9422 365.8428 L 131.9729 391.5607 L 124.5399 396.7092 C 122.6971 384.6552 121.7662 372.3542 121.7662 360.1196 C 121.7662 343.8147 123.4094 327.5195 126.6486 311.6897 C 129.8069 296.2684 134.5136 281.0985 140.6452 266.5984" transform="matrix(1,0,0,-1,0,720)"/><path fill="#b2f2fe" d="M 541.1123 520.3035 C 539.6162 521.9753 538.0917 523.6282 536.5624 525.2477 L 534.3491 524.939 C 535.6743 523.1438 536.9803 521.3341 538.2626 519.501 Z" transform="matrix(1,0,0,-1,0,720)"/><path fill="#f1f2f2" d="M 335.0917 138.9243 C 306.9417 138.9243 279.8889 143.5788 254.6884 152.1516 L 255.3344 144.7852 C 259.6754 142.6337 264.1068 140.5962 268.5141 138.7344 C 283.0093 132.5982 298.1837 127.8916 313.6051 124.7377 C 345.2601 118.2549 378.8053 118.2549 410.4649 124.7377 C 425.8865 127.8916 441.0561 132.5982 455.5514 138.7344 C 469.7901 144.752 483.5208 152.2086 496.3632 160.8809 C 506.2136 167.5397 515.6459 174.9917 524.4514 183.0657 L 514.7198 181.0755 C 514.4159 181.0091 514.0976 181.0947 513.8649 181.3037 C 513.6273 181.5077 513.5037 181.8119 513.5278 182.1251 L 516.1635 217.0715 C 471.1343 169.0169 406.6798 138.9243 335.0917 138.9243" transform="matrix(1,0,0,-1,0,720)"/><path fill="#fff" d="M 313.6051 595.506 C 306.0108 593.9481 298.3881 591.9962 290.9409 589.6928 L 290.2096 587.052 L 294.4176 584.7911 L 330.969 584.7911 C 331.3205 584.7911 331.6482 584.606 331.8239 584.3021 L 340.8812 569.1087 L 356.4309 577.1826 C 356.5732 577.2586 356.73 577.2966 356.8915 577.2966 L 382.5147 577.2966 L 390.9498 598.6602 C 381.3891 599.8048 371.6671 600.385 362.035 600.385 C 345.7256 600.385 329.4351 598.7432 313.6051 595.506" transform="matrix(1,0,0,-1,0,720)"/><path fill="#1a1a18" d="M 124.5399 396.7092 L 131.9729 391.5607 L 139.9422 365.8428 C 139.9946 365.6716 140.0944 365.5151 140.2274 365.3963 L 150.7377 355.9924 L 140.1514 341.2406 C 139.9377 340.9461 139.9042 340.5566 140.061 340.2289 L 147.4892 324.9215 L 141.2104 313.7604 C 141.0727 313.5183 141.044 313.2332 141.1296 312.9721 L 149.4839 287.0022 C 149.5077 286.926 149.5409 286.8548 149.5837 286.7837 L 164.6155 262.59 C 164.6773 262.4902 164.7581 262.4049 164.8483 262.3337 L 177.5149 252.4167 L 187.6076 237.0903 L 197.8665 190.1803 L 198.1562 188.9977 L 199.614 183.0657 C 197.0637 185.4071 194.5607 187.8055 192.1385 190.2277 C 181.2671 201.0991 171.3929 213.063 162.7965 225.7914 C 154.1194 238.6341 146.6674 252.3645 140.6452 266.5984 C 134.5136 281.0985 129.8069 296.2684 126.6486 311.6897 C 123.4094 327.5195 121.7662 343.8147 121.7662 360.1196 C 121.7662 372.3542 122.6971 384.6552 124.5399 396.7092 Z M 431.5669 560.6974 L 412.8778 566.4966 C 412.3553 566.6579 411.8043 566.373 411.6382 565.8554 L 400.515 531.3841 C 400.4201 531.0799 400.4722 530.7523 400.6573 530.4912 C 400.8472 530.2346 401.1466 530.0827 401.4649 530.0827 L 426.276 530.0827 L 431.5669 522.8731 L 431.5669 499.4252 C 431.5669 499.064 431.7568 498.7363 432.0703 498.5606 L 449.5385 488.734 C 449.89 488.5347 450.3268 488.5727 450.6452 488.8196 L 472.5828 506.2453 L 493.0053 500.2991 L 511.7182 495.8059 C 511.9937 495.7396 512.2834 495.7917 512.5113 495.9533 C 512.744 496.11 512.9008 496.3618 512.9388 496.6373 L 516.4248 522.4456 L 534.3491 524.939 L 536.5624 525.2477 C 538.0917 523.6282 539.6162 521.9753 541.1123 520.3035 L 538.2626 519.501 L 518.106 513.8396 C 517.6786 513.7209 517.3795 513.3266 517.3795 512.8804 L 517.3795 492.961 C 517.3795 492.4814 517.7214 492.0729 518.1914 491.9825 L 540.5519 487.7651 L 547.2011 482.0613 L 546.4032 477.8152 L 526.5269 475.5212 C 525.9949 475.4594 525.6102 474.9894 525.6482 474.4573 L 525.9237 470.8998 L 509.1154 480.0237 C 509.0774 480.0427 509.044 480.0569 509.0063 480.0711 L 501.2597 483.1724 L 501.2597 495.7586 C 501.2597 496.0576 501.1268 496.338 500.8941 496.5279 C 500.6614 496.7178 500.3527 496.7892 500.063 496.732 L 442.2294 484.6448 C 442.0202 484.6022 441.8303 484.4928 441.6925 484.3361 L 425.8247 466.7063 C 425.6586 466.5257 425.5682 466.2884 425.5682 466.0413 L 425.5682 454.4765 L 408.3942 435.8682 C 408.2944 435.759 408.2185 435.6309 408.1759 435.4835 L 401.9825 415.137 C 401.9017 414.8804 401.9304 414.6004 402.0585 414.3677 L 410.0564 399.8248 L 401.6786 374.6908 C 401.5599 374.3345 401.65 373.945 401.9114 373.6791 L 422.3435 352.7436 L 448.9118 324.2186 C 449.1822 323.924 449.6003 323.8243 449.9756 323.9575 L 478.9851 334.4111 L 494.5204 338.0488 L 510.9534 334.2019 C 511.0245 334.1829 511.1008 334.1735 511.1813 334.1735 L 519.2555 334.1735 L 519.2555 326.6836 C 519.2555 326.6456 519.2555 326.6076 519.2603 326.5696 L 522.3331 299.7116 C 522.3379 299.664 522.3424 299.6215 522.3569 299.5787 L 528.7399 274.7438 L 517.0898 240.6951 C 517.0564 240.605 517.0422 240.51 517.0374 240.4103 L 516.2681 218.463 L 513.5278 182.1251 C 513.5037 181.8119 513.6273 181.5077 513.8649 181.3037 C 514.0976 181.0947 514.4159 181.0091 514.7198 181.0755 L 524.4514 183.0657 C 515.6459 174.9917 506.2136 167.5397 496.3632 160.8809 C 483.5208 152.2086 469.7901 144.752 455.5514 138.7344 C 441.0561 132.5982 425.8865 127.8916 410.4649 124.7377 C 378.8053 118.2549 345.2601 118.2549 313.6051 124.7377 C 298.1837 127.8916 283.0093 132.5982 268.5141 138.7344 C 264.1068 140.5962 259.6754 142.6337 255.3344 144.7852 L 254.6884 152.1516 L 254.1518 158.3164 L 281.5132 185.6446 C 281.7176 185.8487 281.8219 186.1291 281.8029 186.4188 L 280.4542 205.6776 L 308.001 216.7152 C 308.3 216.834 308.5234 217.086 308.5994 217.3992 L 313.7 237.9643 L 317.7278 253.2574 L 333.7903 267.5863 C 334.004 267.7765 334.1228 268.0472 334.1228 268.3321 L 334.1228 301.578 C 334.1228 302.034 333.8141 302.4283 333.3722 302.5423 L 305.9966 309.4481 L 270.3331 323.6581 L 257.9751 338.8184 L 242.0218 361.8672 C 241.884 362.0716 241.6703 362.2141 241.4282 362.2711 L 212.8127 368.9487 L 201.02 388.8442 C 200.8823 389.0815 200.6495 389.2479 200.3837 389.3094 L 176.171 394.6907 C 175.9334 394.7428 175.6817 394.7049 175.468 394.5861 L 173.4259 393.4414 L 160.9775 386.4694 L 157.2871 395.4932 L 157.6531 405.5335 L 177.5103 422.4892 C 177.7192 422.6695 177.8477 422.9308 177.857 423.2109 C 177.8664 423.4864 177.7572 423.7571 177.5577 423.9519 L 161.2579 439.9764 C 160.9492 440.2806 160.4789 440.3517 160.0988 440.1473 L 148.4677 434.0015 L 148.477 434.0682 L 160.1892 459.6106 L 163.6705 461.1351 L 174.0813 442.5934 C 174.2049 442.3654 174.4183 442.1993 174.6655 442.1279 L 191.4545 437.1837 C 191.7587 437.0936 192.0864 437.1554 192.3381 437.3501 C 192.5943 437.5449 192.7369 437.8439 192.7276 438.1622 L 191.8012 473.0703 L 202.0742 480.3228 C 202.098 480.3369 202.117 480.3514 202.136 480.3656 L 214.9739 490.9377 L 235.1826 506.9908 L 254.9639 508.1119 L 281.2615 509.5984 C 281.6084 509.6174 281.9171 509.8122 282.0832 510.1209 C 282.2448 510.4199 282.24 510.7904 282.0688 511.0897 L 271.0692 530.0827 L 282.4251 530.0827 C 282.6247 530.0827 282.8146 530.1397 282.9762 530.2488 L 302.368 543.1768 C 302.6007 543.3335 302.7574 543.5804 302.8003 543.8608 C 302.8382 544.1409 302.7574 544.426 302.5769 544.6443 L 285.4933 565.0481 L 274.4271 577.6291 C 274.1088 577.9854 273.5819 578.0707 273.1686 577.8238 L 253.8527 566.3254 L 251.3069 564.7725 L 250.3474 565.8409 L 253.7195 574.6416 C 258.5687 577.0973 263.5461 579.4053 268.5141 581.5046 C 271.3589 582.711 274.2752 583.8746 277.2057 584.9813 L 276.3221 581.7991 C 276.1985 581.3527 276.4029 580.8779 276.8114 580.6593 L 291.1737 572.9224 C 291.316 572.8465 291.4824 572.8037 291.6437 572.8037 L 324.7237 572.8037 L 335.8894 554.0672 C 336.1603 553.6159 336.7349 553.4498 337.2004 553.6922 L 359.5751 565.3091 L 389.9903 565.3091 C 390.3987 565.3091 390.7692 565.5609 390.9163 565.9407 L 403.132 596.8834 C 405.6063 596.4559 408.0713 595.9953 410.4649 595.506 C 411.0826 595.3779 411.7 595.2495 412.3174 595.1166 L 415.4947 579.9183 C 415.5327 579.738 415.6228 579.5717 415.7512 579.4339 L 431.5669 562.9011 Z M 181.8989 179.9833 C 189.3696 172.5123 197.4056 165.4214 205.7788 158.9054 C 209.8729 155.7232 214.1093 152.6267 218.3743 149.7104 C 218.7828 149.4349 219.1867 149.1593 219.5952 148.8793 C 227.6357 143.4506 236.0849 138.4211 244.7195 133.9328 C 248.1676 132.1424 251.7106 130.4039 255.2443 128.77 C 257.7898 127.5922 260.3546 126.4572 262.8717 125.3934 C 278.2505 118.8865 294.3414 113.8949 310.6984 110.5466 C 327.4829 107.1128 344.7519 105.3697 362.035 105.3697 C 379.3136 105.3697 396.5825 107.1128 413.367 110.5466 C 429.7241 113.8949 445.8149 118.8865 461.1937 125.3934 C 476.2922 131.7764 490.854 139.6794 504.4706 148.8793 C 517.9589 157.9935 530.6445 168.4562 542.1668 179.9833 C 544.9357 182.7522 547.6904 185.6398 550.3595 188.5654 C 554.0071 192.5694 557.5785 196.7488 560.965 200.9806 C 565.287 206.3758 569.4284 211.9944 573.2708 217.6795 C 582.4704 231.3009 590.3734 245.8627 596.7615 260.9561 C 603.2633 276.3349 608.2597 292.426 611.608 308.7879 C 615.0419 325.5676 616.7803 342.8413 616.7803 360.1196 C 616.7803 377.3979 615.0419 394.6717 611.608 411.4514 C 608.2597 427.8132 603.2633 443.9041 596.7615 459.2829 C 590.3734 474.3765 582.4704 488.9384 573.2708 502.5597 C 569.8321 507.6465 566.1465 512.695 562.3234 517.549 C 560.2524 520.1802 558.1012 522.8065 555.9211 525.3616 C 553.9405 527.684 551.8936 529.9971 549.8371 532.2436 C 547.3911 534.9127 544.8549 537.5631 542.3091 540.1134 L 542.1668 540.256 C 530.64 551.7828 517.9589 562.2457 504.4706 571.36 C 490.854 580.5595 476.2922 588.4625 461.1937 594.8459 C 449.1632 599.9343 436.6202 604.1239 423.9105 607.2982 C 420.4151 608.1712 416.8672 608.9774 413.367 609.6934 C 412.4313 609.8851 411.4956 610.069 410.5599 610.2502 C 408.0523 610.7332 405.5066 611.1845 402.9894 611.5895 C 399.6694 612.1267 396.2928 612.6026 392.9539 613.0069 C 382.733 614.2428 372.3318 614.8689 362.035 614.8689 C 344.7519 614.8689 327.4829 613.1279 310.6984 609.6934 C 305.0609 608.5397 299.3712 607.1686 293.781 605.6181 C 290.0052 604.5704 286.1819 603.4119 282.4206 602.1757 C 275.8141 600.0043 269.2361 597.5388 262.8717 594.8459 C 261.5751 594.2996 260.2834 593.7392 258.9962 593.1692 C 254.5841 591.2124 250.1575 589.0989 245.8451 586.8859 C 236.8117 582.2456 227.9778 577.0213 219.5952 571.36 C 206.1065 562.2457 193.4257 551.7828 181.8989 540.256 C 170.3718 528.7292 159.9089 516.0481 150.7949 502.5597 C 141.5951 488.9384 133.6921 474.3765 127.3042 459.2829 C 124.7584 453.2607 122.4122 447.0389 120.3273 440.7885 C 117.9193 433.5695 115.8151 426.1652 114.0721 418.7798 C 113.4975 416.3386 112.9561 413.8736 112.4572 411.4514 C 109.0236 394.6717 107.2854 377.3979 107.2854 360.1196 C 107.2854 342.8413 109.0236 325.5676 112.4572 308.7879 C 115.8058 292.426 120.8021 276.3349 127.3042 260.9561 C 133.6921 245.8627 141.5951 231.3009 150.7949 217.6795 C 159.9089 204.1909 170.3718 191.5101 181.8989 179.9833" transform="matrix(1,0,0,-1,0,720)"/></g></g></svg>